<svg width="15" height="9" viewBox="0 0 15 9" fill="currentColor"
  xmlns="http://www.w3.org/2000/svg">
  <path d="M7.5 3.33948e-07C7.67937 3.4963e-07 7.85292 0.0343526 8.02063 0.103055C8.18924 0.171757 8.3296 0.26336 8.4417 0.377864L14.63 6.69847C14.8767 6.95038 15 7.27099 15 7.66031C15 8.04962 14.8767 8.37023 14.63 8.62214C14.3834 8.87405 14.0695 9 13.6883 9C13.3072 9 12.9933 8.87405 12.7466 8.62214L7.5 3.26336L2.25336 8.62214C2.00673 8.87405 1.69282 9 1.31166 9C0.930493 9 0.616593 8.87405 0.369956 8.62214C0.12332 8.37023 -8.59551e-07 8.04962 -8.25516e-07 7.66031C-7.91481e-07 7.27099 0.12332 6.95038 0.369956 6.69847L6.5583 0.377864C6.69283 0.240459 6.83857 0.14336 6.99552 0.0865661C7.15247 0.0288562 7.32063 3.18267e-07 7.5 3.33948e-07Z"/>
</svg>
