<svg width="15" height="15" viewBox="0 0 15 15" fill="none" xmlns="http://www.w3.org/2000/svg">
<path d="M7.50002 14C8.35377 14.0011 9.19933 13.8335 9.98809 13.5068C10.7769 13.18 11.4933 12.7007 12.0962 12.0962C12.7007 11.4933 13.18 10.7769 13.5068 9.98809C13.8335 9.19933 14.0011 8.35377 14 7.50002C14.0011 6.64626 13.8335 5.80071 13.5068 5.01195C13.18 4.22319 12.7006 3.50677 12.0962 2.90386C11.4933 2.29937 10.7769 1.81998 9.98809 1.49325C9.19933 1.16653 8.35377 0.998899 7.50002 1.00001C6.64626 0.998917 5.80071 1.16655 5.01195 1.49328C4.22319 1.82001 3.50677 2.29938 2.90386 2.90386C2.29938 3.50677 1.82001 4.22319 1.49328 5.01195C1.16655 5.80071 0.998917 6.64626 1.00001 7.50002C0.998899 8.35377 1.16653 9.19933 1.49325 9.98809C1.81998 10.7769 2.29937 11.4933 2.90386 12.0962C3.50677 12.7006 4.22319 13.18 5.01195 13.5068C5.80071 13.8335 6.64626 14.0011 7.50002 14Z" stroke="#3372EE" stroke-width="2" stroke-linejoin="round"/>
<path fill-rule="evenodd" clip-rule="evenodd" d="M7.5 12C7.76522 12 8.01957 11.8946 8.20711 11.7071C8.39464 11.5196 8.5 11.2652 8.5 11C8.5 10.7348 8.39464 10.4804 8.20711 10.2929C8.01957 10.1054 7.76522 10 7.5 10C7.23478 10 6.98043 10.1054 6.79289 10.2929C6.60536 10.4804 6.5 10.7348 6.5 11C6.5 11.2652 6.60536 11.5196 6.79289 11.7071C6.98043 11.8946 7.23478 12 7.5 12Z" fill="#3372EE"/>
<path d="M7.5 4L7.5 8" stroke="#3372EE" stroke-width="2" stroke-linecap="round" stroke-linejoin="round"/>
</svg>
