<svg width="23" height="15" viewBox="0 0 23 15" fill="none" xmlns="http://www.w3.org/2000/svg">
<path d="M8.07702 8.74759L10.9896 14.0499C11.1497 14.341 11.1197 14.5959 10.8995 14.8146C10.6793 15.0325 10.4291 15.0583 10.1488 14.892L0.570496 8.56045C0.190166 8.31093 0 7.95745 0 7.5C0 7.04255 0.190166 6.68906 0.570496 6.43955L10.1488 0.108016C10.4291 -0.0583291 10.6793 -0.0325452 10.8995 0.185368C11.1197 0.404112 11.1497 0.659037 10.9896 0.950141L8.07702 6.25241L21.799 6.25241C22.1393 6.25241 22.4243 6.37176 22.6541 6.61047C22.8847 6.85 23 7.14652 23 7.5C23 7.85348 22.8847 8.14958 22.6541 8.38829C22.4243 8.62782 22.1393 8.74759 21.799 8.74759L8.07702 8.74759Z" fill="#FDFDFD"/>
</svg>
