<svg width="30" height="30" viewBox="0 0 30 30" fill="none" xmlns="http://www.w3.org/2000/svg">
<path d="M23.1002 3.58127C23.4197 3.13081 23.3152 2.50347 22.8444 2.21464C20.6961 0.896562 18.2453 0.138137 15.717 0.0171469C12.8551 -0.119814 10.0138 0.565768 7.52921 1.9928C5.04465 3.41983 3.02077 5.5286 1.69697 8.06967C0.37318 10.6107 -0.195143 13.4778 0.0592309 16.3317C0.313605 19.1856 1.38003 21.9069 3.13237 24.1738C4.8847 26.4407 7.24963 28.1583 9.94741 29.1234C12.6452 30.0886 15.563 30.2608 18.3556 29.6199C20.8225 29.0536 23.1007 27.8737 24.982 26.1965C25.3942 25.8289 25.3861 25.193 24.992 24.8061L23.5489 23.3899C23.1547 23.0031 22.5243 23.013 22.1032 23.3703C20.7666 24.5046 19.1738 25.3055 17.4558 25.6998C15.412 26.1689 13.2766 26.0429 11.3022 25.3365C9.32774 24.6302 7.59691 23.3731 6.31443 21.7141C5.03195 20.055 4.25146 18.0633 4.06529 15.9746C3.87912 13.8859 4.29506 11.7876 5.26391 9.92789C6.23275 8.06816 7.71397 6.52481 9.53235 5.48041C11.3507 4.43601 13.4302 3.93426 15.5248 4.03449C17.2854 4.11875 18.9948 4.62538 20.5109 5.50536C20.9885 5.7826 21.6108 5.68087 21.9303 5.23041L23.1002 3.58127Z" fill="#FDFDFD"/>
<path d="M23.6861 13.7293C24.4519 14.0895 24.4519 15.1788 23.6861 15.539L12.2182 20.9339C11.555 21.2459 10.7925 20.762 10.7925 20.029L10.7925 9.23925C10.7925 8.50629 11.555 8.02237 12.2182 8.33438L23.6861 13.7293Z" fill="#FDFDFD"/>
</svg>
