<svg width="14" height="14" viewBox="0 0 14 14" fill="none"
  xmlns="http://www.w3.org/2000/svg">
  <path fill-rule="evenodd" clip-rule="evenodd" d="M1.62717 5.66697C1.62717 4.59341 2.05576 3.56383 2.81864 2.80472C3.58153 2.0456 4.61623 1.61913 5.69512 1.61913C6.774 1.61913 7.8087 2.0456 8.57159 2.80472C9.33447 3.56383 9.76306 4.59341 9.76306 5.66697C9.76306 6.74052 9.33447 7.7701 8.57159 8.52922C7.8087 9.28833 6.774 9.7148 5.69512 9.7148C4.61623 9.7148 3.58153 9.28833 2.81864 8.52922C2.05576 7.7701 1.62717 6.74052 1.62717 5.66697ZM5.69512 1.78576e-07C4.79306 1.70802e-06 3.9039 0.21322 3.10087 0.622097C2.29783 1.03097 1.60389 1.62381 1.07619 2.3518C0.548483 3.07978 0.202112 3.92208 0.0655964 4.80934C-0.070919 5.6966 0.00632622 6.60344 0.290971 7.45518C0.575616 8.30692 1.05952 9.0792 1.70283 9.70841C2.34614 10.3376 3.13046 10.8058 3.9912 11.0743C4.85194 11.3429 5.76447 11.4042 6.65366 11.2531C7.54285 11.102 8.38326 10.7429 9.10568 10.2054L12.6106 13.7626C12.7632 13.9145 12.9701 13.9999 13.186 14C13.4018 14.0001 13.6088 13.9148 13.7615 13.763C13.9141 13.6112 13.9999 13.4053 14 13.1906C14.0001 12.9758 13.9144 12.7698 13.7619 12.6179L10.2569 9.06148C10.8902 8.21914 11.2753 7.21804 11.3692 6.17025C11.4631 5.12246 11.262 4.06935 10.7885 3.12882C10.315 2.18829 9.58778 1.39746 8.68822 0.844866C7.78866 0.292275 6.75228 -0.000263858 5.69512 1.78576e-07Z" fill="#FDFDFD"/>
</svg>
